<?xml version='1.0' encoding='utf-8'?>
<svg xmlns="http://www.w3.org/2000/svg" xmlns:cc="http://creativecommons.org/ns#" xmlns:dc="http://purl.org/dc/elements/1.1/" xmlns:rdf="http://www.w3.org/1999/02/22-rdf-syntax-ns#" xmlns:xlink="http://www.w3.org/1999/xlink" width="251.058531pt" height="412pt" viewBox="0 0 251.058531 412" version="1.1">
 <metadata>
  <rdf:RDF>
   <cc:Work>
    <dc:type rdf:resource="http://purl.org/dc/dcmitype/StillImage" />
    <dc:format>image/svg+xml</dc:format>
    <dc:creator>
     <cc:Agent>
      <dc:title>Matplotlib v3.8.4, https://matplotlib.org/</dc:title>
     </cc:Agent>
    </dc:creator>
   </cc:Work>
  </rdf:RDF>
 </metadata>
 <defs>
  <style type="text/css">*{stroke-linejoin: round; stroke-linecap: butt}</style>
 </defs>
 <g id="figure_1">
  <g id="patch_1">
   <path d="M 0 412  L 251.058531 412  L 251.058531 0  L 0 0  z " style="fill: #ffffff" />
  </g>
  <g id="axes_1">
   <g id="patch_2">
    <path d="M 125 20  L 125 28  " clip-path="url(#pdbb215e605)" style="fill: none; stroke: #242b32; stroke-width: 0.85; stroke-linecap: round" />
   </g>
   <g id="patch_3">
    <path d="M 125 28  L 64 28  L 64 77.049671  " clip-path="url(#pdbb215e605)" style="fill: none; stroke: #242b32; stroke-width: 0.85; stroke-linecap: round" />
    <path d="M 65.2 74.649671  L 64 77.049671  L 62.8 74.649671  z " clip-path="url(#pdbb215e605)" style="fill: #242b32; stroke: #242b32; stroke-width: 0.85; stroke-linecap: round" />
   </g>
   <g id="patch_4">
    <path d="M 125 28  L 180 28  L 180 51.049671  " clip-path="url(#pdbb215e605)" style="fill: none; stroke: #242b32; stroke-width: 0.85; stroke-linecap: round" />
    <path d="M 181.2 48.649671  L 180 51.049671  L 178.8 48.649671  z " clip-path="url(#pdbb215e605)" style="fill: #242b32; stroke: #242b32; stroke-width: 0.85; stroke-linecap: round" />
   </g>
   <g id="patch_5">
    <path d="M 64 99  L 64 109.049671  " clip-path="url(#pdbb215e605)" style="fill: none; stroke: #242b32; stroke-width: 0.85; stroke-linecap: round" />
    <path d="M 65.2 106.649671  L 64 109.049671  L 62.8 106.649671  z " clip-path="url(#pdbb215e605)" style="fill: #242b32; stroke: #242b32; stroke-width: 0.85; stroke-linecap: round" />
   </g>
   <g id="patch_6">
    <path d="M 64 131  L 64 141.049671  " clip-path="url(#pdbb215e605)" style="fill: none; stroke: #242b32; stroke-width: 0.85; stroke-linecap: round" />
    <path d="M 65.2 138.649671  L 64 141.049671  L 62.8 138.649671  z " clip-path="url(#pdbb215e605)" style="fill: #242b32; stroke: #242b32; stroke-width: 0.85; stroke-linecap: round" />
   </g>
   <g id="patch_7">
    <path d="M 180 80  L 180 91.049671  " clip-path="url(#pdbb215e605)" style="fill: none; stroke: #242b32; stroke-width: 0.85; stroke-linecap: round" />
    <path d="M 181.2 88.649671  L 180 91.049671  L 178.8 88.649671  z " clip-path="url(#pdbb215e605)" style="fill: #242b32; stroke: #242b32; stroke-width: 0.85; stroke-linecap: round" />
   </g>
   <g id="patch_8">
    <path d="M 180 120  L 180 131.049671  " clip-path="url(#pdbb215e605)" style="fill: none; stroke: #242b32; stroke-width: 0.85; stroke-linecap: round" />
    <path d="M 181.2 128.649671  L 180 131.049671  L 178.8 128.649671  z " clip-path="url(#pdbb215e605)" style="fill: #242b32; stroke: #242b32; stroke-width: 0.85; stroke-linecap: round" />
   </g>
   <g id="patch_9">
    <path d="M 180 175  L 180 186.049671  " clip-path="url(#pdbb215e605)" style="fill: none; stroke: #242b32; stroke-width: 0.85; stroke-linecap: round" />
    <path d="M 181.2 183.649671  L 180 186.049671  L 178.8 183.649671  z " clip-path="url(#pdbb215e605)" style="fill: #242b32; stroke: #242b32; stroke-width: 0.85; stroke-linecap: round" />
   </g>
   <g id="patch_10">
    <path d="M 180 208  L 180 219.049671  " clip-path="url(#pdbb215e605)" style="fill: none; stroke: #242b32; stroke-width: 0.85; stroke-linecap: round" />
    <path d="M 181.2 216.649671  L 180 219.049671  L 178.8 216.649671  z " clip-path="url(#pdbb215e605)" style="fill: #242b32; stroke: #242b32; stroke-width: 0.85; stroke-linecap: round" />
   </g>
   <g id="patch_11">
    <path d="M 64 162  L 64 171  L 20 171  L 20 255  L 91 255  L 91 267.049671  " clip-path="url(#pdbb215e605)" style="fill: none; stroke: #242b32; stroke-width: 0.85; stroke-linecap: round" />
    <path d="M 92.2 264.649671  L 91 267.049671  L 89.8 264.649671  z " clip-path="url(#pdbb215e605)" style="fill: #242b32; stroke: #242b32; stroke-width: 0.85; stroke-linecap: round" />
   </g>
   <g id="patch_12">
    <path d="M 180 248  L 180 255  L 160 255  L 160 267.049671  " clip-path="url(#pdbb215e605)" style="fill: none; stroke: #242b32; stroke-width: 0.85; stroke-linecap: round" />
    <path d="M 161.2 264.649671  L 160 267.049671  L 158.8 264.649671  z " clip-path="url(#pdbb215e605)" style="fill: #242b32; stroke: #242b32; stroke-width: 0.85; stroke-linecap: round" />
   </g>
   <g id="patch_13">
    <path d="M 126 292  L 126 303.049671  " clip-path="url(#pdbb215e605)" style="fill: none; stroke: #242b32; stroke-width: 0.85; stroke-linecap: round" />
    <path d="M 127.2 300.649671  L 126 303.049671  L 124.8 300.649671  z " clip-path="url(#pdbb215e605)" style="fill: #242b32; stroke: #242b32; stroke-width: 0.85; stroke-linecap: round" />
   </g>
   <g id="patch_14">
    <path d="M 126 347  L 126 354.049671  " clip-path="url(#pdbb215e605)" style="fill: none; stroke: #242b32; stroke-width: 0.85; stroke-linecap: round" />
    <path d="M 127.2 351.649671  L 126 354.049671  L 124.8 351.649671  z " clip-path="url(#pdbb215e605)" style="fill: #242b32; stroke: #242b32; stroke-width: 0.85; stroke-linecap: round" />
   </g>
   <g id="patch_15">
    <path d="M 64 28  L 9 28  L 9 362  L 118.049671 362  " clip-path="url(#pdbb215e605)" style="fill: none; stroke: #242b32; stroke-width: 0.85; stroke-linecap: round" />
    <path d="M 115.649671 360.8  L 118.049671 362  L 115.649671 363.2  z " clip-path="url(#pdbb215e605)" style="fill: #242b32; stroke: #242b32; stroke-width: 0.85; stroke-linecap: round" />
   </g>
   <g id="patch_16">
    <path d="M 126 369  L 126 374.049671  " clip-path="url(#pdbb215e605)" style="fill: none; stroke: #242b32; stroke-width: 0.85; stroke-linecap: round" />
    <path d="M 127.2 371.649671  L 126 374.049671  L 124.8 371.649671  z " clip-path="url(#pdbb215e605)" style="fill: #242b32; stroke: #242b32; stroke-width: 0.85; stroke-linecap: round" />
   </g>
   <g id="patch_17">
    <path d="M 126 355  C 127.856422 355 129.637059 355.737564 130.949747 357.050253  C 132.262436 358.362941 133 360.143578 133 362  C 133 363.856422 132.262436 365.637059 130.949747 366.949747  C 129.637059 368.262436 127.856422 369 126 369  C 124.143578 369 122.362941 368.262436 121.050253 366.949747  C 119.737564 365.637059 119 363.856422 119 362  C 119 360.143578 119.737564 358.362941 121.050253 357.050253  C 122.362941 355.737564 124.143578 355 126 355  z " clip-path="url(#pdbb215e605)" style="fill: #ffffff; stroke: #a8620c; stroke-width: 0.75; stroke-linejoin: miter" />
   </g>
   <g id="line2d_1">
    <defs>
     <path id="m7e5af91d7c" d="M 0 1.1  C 0.291723 1.1 0.571538 0.984097 0.777817 0.777817  C 0.984097 0.571538 1.1 0.291723 1.1 0  C 1.1 -0.291723 0.984097 -0.571538 0.777817 -0.777817  C 0.571538 -0.984097 0.291723 -1.1 0 -1.1  C -0.291723 -1.1 -0.571538 -0.984097 -0.777817 -0.777817  C -0.984097 -0.571538 -1.1 -0.291723 -1.1 0  C -1.1 0.291723 -0.984097 0.571538 -0.777817 0.777817  C -0.571538 0.984097 -0.291723 1.1 0 1.1  z " style="stroke: #242b32" />
    </defs>
    <g clip-path="url(#pdbb215e605)">
     <use xlink:href="#m7e5af91d7c" x="125" y="28" style="fill: #242b32; stroke: #242b32" />
    </g>
   </g>
   <g id="line2d_2">
    <g clip-path="url(#pdbb215e605)">
     <use xlink:href="#m7e5af91d7c" x="64" y="28" style="fill: #242b32; stroke: #242b32" />
    </g>
   </g>
   <g id="text_1">
    
    <g style="fill: #242b32" transform="translate(87.418 14.438)">
     <text>
      <tspan style="font: 700 9.2px 'Arial'" x="0" y="-0.3125">I</tspan><tspan style="font: 700 9.2px 'Arial'" x="2.552582" y="-0.3125">n</tspan><tspan style="font: 700 9.2px 'Arial'" x="8.164673" y="-0.3125">p</tspan><tspan style="font: 700 9.2px 'Arial'" x="13.776764" y="-0.3125">u</tspan><tspan style="font: 700 9.2px 'Arial'" x="19.388855" y="-0.3125">t</tspan><tspan style="font: 700 9.2px 'Arial'" x="22.448364" y="-0.3125"> </tspan><tspan style="font: 700 9.2px 'Arial'" x="30.613037" y="-0.3125">:</tspan><tspan style="font: 700 9.2px 'Arial'" x="33.672546" y="-0.3125"> </tspan><tspan style="font: italic 9.2px 'Arial'" x="25.000946" y="-0.3125">F</tspan><tspan style="font: italic 9.2px 'Arial'" x="36.225128" y="-0.3125">H</tspan><tspan style="font: italic 9.2px 'Arial'" x="51.286707" y="-0.3125">W</tspan><tspan style="font: italic 9.2px 'Arial'" x="68.384967" y="-0.3125">C</tspan><tspan style="font: 9.2px 'Arial'" x="44.390698" y="-0.3125">×</tspan><tspan style="font: 9.2px 'Arial'" x="61.488959" y="-0.3125">×</tspan></text>
    </g>
   </g>
   <g id="text_2">
    <text style="fill: #242b32; font: 700 8.5px 'Arial'; text-anchor: middle" x="34" y="45.255156" transform="rotate(-0 34 45.255156)">Spatial</text>
   </g>
   <g id="text_3">
    <text style="fill: #242b32; font: 700 8.5px 'Arial'; text-anchor: middle" x="212" y="45.255156" transform="rotate(-0 212 45.255156)">Spectral</text>
   </g>
   <g id="text_4">
    <text style="fill: #a8620c; font: 8px 'Arial'" transform="translate(37.10375 193.655531)">Frequency mixers:</text>
    <text style="fill: #a8620c; font: 8px 'Arial'" transform="translate(25.978125 201.924469)">shared over coordinates;</text>
    <text style="fill: #a8620c; font: 8px 'Arial'" transform="translate(31.313125 210.099656)">no convolution across</text>
    <text style="fill: #a8620c; font: 8px 'Arial'" transform="translate(26.195 218.386969)">neighboring frequencies.</text>
   </g>
   <g id="text_5">
    
    <g style="fill: #242b32" transform="translate(44.41 248.845)">
     <text>
      <tspan style="font: italic 9px 'Arial'" x="0" y="-0.5625">F</tspan>
      <tspan style="font: italic 6.3px 'Arial'" x="5.497559" y="2.1256874999999997">s</tspan>
     </text>
    </g>
   </g>
   <g id="text_6">
    
    <g style="fill: #242b32" transform="translate(199.13 256.89)">
     <text>
      <tspan style="font: italic 9px 'Arial'" x="0" y="-0.5625">F</tspan>
      <tspan style="font: italic 6.3px 'Arial'" x="5.497559" y="2.1256874999999997">f</tspan>
     </text>
    </g>
   </g>
   <g id="text_7">
    <text style="fill: #242b32; font: 12px 'Arial'; text-anchor: middle" x="126" y="365.102188" transform="rotate(-0 126 365.102188)">+</text>
   </g>
   <g id="text_8">
    
    <g style="fill: #242b32" transform="translate(25.108 354.05)">
     <text>
      <tspan style="font: 8.2px 'Arial'" x="0" y="-0.140625">I</tspan><tspan style="font: 8.2px 'Arial'" x="2.27475" y="-0.140625">d</tspan><tspan style="font: 8.2px 'Arial'" x="6.828247" y="-0.140625">e</tspan><tspan style="font: 8.2px 'Arial'" x="11.381744" y="-0.140625">n</tspan><tspan style="font: 8.2px 'Arial'" x="15.935242" y="-0.140625">t</tspan><tspan style="font: 8.2px 'Arial'" x="18.209991" y="-0.140625">i</tspan><tspan style="font: 8.2px 'Arial'" x="20.028992" y="-0.140625">t</tspan><tspan style="font: 8.2px 'Arial'" x="22.303741" y="-0.140625">y</tspan><tspan style="font: 8.2px 'Arial'" x="26.397491" y="-0.140625"> </tspan><tspan style="font: italic 8.2px 'Arial'" x="28.672241" y="-0.140625">F</tspan>
     </text>
    </g>
   </g>
   <g id="text_9">
    
    <g style="fill: #242b32" transform="translate(88.418 385.346)">
     <text>
      <tspan style="font: 700 9.2px 'Arial'" x="0" y="-0.3125">F</tspan><tspan style="font: 700 9.2px 'Arial'" x="5.612091" y="-0.3125">D</tspan><tspan style="font: 700 9.2px 'Arial'" x="12.247009" y="-0.3125">R</tspan><tspan style="font: 700 9.2px 'Arial'" x="30.613037" y="-0.3125">:</tspan><tspan style="font: 700 9.2px 'Arial'" x="33.672546" y="-0.3125"> </tspan><tspan style="font: 9.2px 'Arial'" x="18.881927" y="-0.3125">(</tspan><tspan style="font: 9.2px 'Arial'" x="27.553528" y="-0.3125">)</tspan><tspan style="font: 9.2px 'Arial'" x="44.390698" y="-0.3125">×</tspan><tspan style="font: 9.2px 'Arial'" x="61.488959" y="-0.3125">×</tspan><tspan style="font: italic 9.2px 'Arial'" x="21.941437" y="-0.3125">F</tspan><tspan style="font: italic 9.2px 'Arial'" x="36.225128" y="-0.3125">H</tspan><tspan style="font: italic 9.2px 'Arial'" x="51.286707" y="-0.3125">W</tspan><tspan style="font: italic 9.2px 'Arial'" x="68.384967" y="-0.3125">C</tspan></text>
    </g>
   </g>
   <g id="text_10">
    
    <g style="fill: #242b32" transform="translate(66.08 402.72)">
     <text>
      <tspan style="font: italic 8px 'Arial'" x="0" y="-0.171875">W</tspan><tspan style="font: italic 8px 'Arial'" x="36.848641" y="-0.171875">W</tspan><tspan style="font: italic 5.6px 'Arial'" x="7.550781" y="2.217625">f</tspan>
      <tspan style="font: 8px 'Arial'" x="9.504891" y="-0.171875"> </tspan><tspan style="font: 8px 'Arial'" x="11.727547" y="-0.171875">=</tspan><tspan style="font: 8px 'Arial'" x="16.399422" y="-0.171875"> </tspan><tspan style="font: 8px 'Arial'" x="18.622078" y="-0.171875">f</tspan><tspan style="font: 8px 'Arial'" x="20.844734" y="-0.171875">l</tspan><tspan style="font: 8px 'Arial'" x="22.622078" y="-0.171875">o</tspan><tspan style="font: 8px 'Arial'" x="27.071297" y="-0.171875">o</tspan><tspan style="font: 8px 'Arial'" x="31.520516" y="-0.171875">r</tspan><tspan style="font: 8px 'Arial'" x="34.184578" y="-0.171875">(</tspan><tspan style="font: 8px 'Arial'" x="44.399422" y="-0.171875">/</tspan><tspan style="font: 8px 'Arial'" x="46.622078" y="-0.171875">2</tspan><tspan style="font: 8px 'Arial'" x="51.071297" y="-0.171875">)</tspan><tspan style="font: 8px 'Arial'" x="53.735359" y="-0.171875"> </tspan><tspan style="font: 8px 'Arial'" x="55.958016" y="-0.171875">+</tspan><tspan style="font: 8px 'Arial'" x="60.629891" y="-0.171875"> </tspan><tspan style="font: 8px 'Arial'" x="62.852547" y="-0.171875">1</tspan><tspan style="font: 8px 'Arial'" x="67.301766" y="-0.171875">;</tspan><tspan style="font: 8px 'Arial'" x="69.524422" y="-0.171875"> </tspan><tspan style="font: 8px 'Arial'" x="71.747078" y="-0.171875">b</tspan><tspan style="font: 8px 'Arial'" x="76.196297" y="-0.171875">a</tspan><tspan style="font: 8px 'Arial'" x="80.645516" y="-0.171875">t</tspan><tspan style="font: 8px 'Arial'" x="82.868172" y="-0.171875">c</tspan><tspan style="font: 8px 'Arial'" x="86.868172" y="-0.171875">h</tspan><tspan style="font: 8px 'Arial'" x="91.317391" y="-0.171875"> </tspan><tspan style="font: 8px 'Arial'" x="93.540047" y="-0.171875">o</tspan><tspan style="font: 8px 'Arial'" x="97.989266" y="-0.171875">m</tspan><tspan style="font: 8px 'Arial'" x="104.653328" y="-0.171875">i</tspan><tspan style="font: 8px 'Arial'" x="106.430672" y="-0.171875">t</tspan><tspan style="font: 8px 'Arial'" x="108.653328" y="-0.171875">t</tspan><tspan style="font: 8px 'Arial'" x="110.875984" y="-0.171875">e</tspan><tspan style="font: 8px 'Arial'" x="115.325203" y="-0.171875">d</tspan></text>
    </g>
   </g>
  <g id="spatial-dwconv"><g id="spatial-dwconv-box">
    <path d="M 27.4 78  L 100.6 78  Q 103 78 103 80.4  L 103 96.6  Q 103 99 100.6 99  L 27.4 99  Q 25 99 25 96.6  L 25 80.4  Q 25 78 27.4 78  z " clip-path="url(#pdbb215e605)" style="fill: #fff0d9; stroke: #a8620c; stroke-width: 0.75; stroke-linejoin: miter" />
   </g>
   <g id="spatial-dwconv-text">
    
    <g style="fill: #242b32" transform="translate(37.8135 90.64568)">
     <text>
      <tspan style="font: 8.3px 'Arial'" x="0" y="-0.953125">D</tspan><tspan style="font: 8.3px 'Arial'" x="5.99173" y="-0.953125">W</tspan><tspan style="font: 8.3px 'Arial'" x="13.822708" y="-0.953125">C</tspan><tspan style="font: 8.3px 'Arial'" x="19.814438" y="-0.953125">o</tspan><tspan style="font: 8.3px 'Arial'" x="24.428757" y="-0.953125">n</tspan><tspan style="font: 8.3px 'Arial'" x="29.043076" y="-0.953125">v</tspan><tspan style="font: 8.3px 'Arial'" x="33.191513" y="-0.953125"> </tspan><tspan style="font: 8.3px 'Arial'" x="35.496643" y="-0.953125">3</tspan><tspan style="font: 8.3px 'Arial'" x="41.493234" y="-0.953125">×</tspan><tspan style="font: 8.3px 'Arial'" x="47.720752" y="-0.953125">3</tspan></text>
    </g>
   </g>
   </g><g id="spatial-pointwise"><g id="spatial-pointwise-box">
    <path d="M 27.4 110  L 100.6 110  Q 103 110 103 112.4  L 103 128.6  Q 103 131 100.6 131  L 27.4 131  Q 25 131 25 128.6  L 25 112.4  Q 25 110 27.4 110  z " clip-path="url(#pdbb215e605)" style="fill: #fff0d9; stroke: #a8620c; stroke-width: 0.75; stroke-linejoin: miter" />
   </g>
   <g id="spatial-pointwise-text">
    
    <g style="fill: #242b32" transform="translate(31.796 122.64568)">
     <text>
      <tspan style="font: 8.3px 'Arial'" x="0" y="-0.953125">1</tspan><tspan style="font: 8.3px 'Arial'" x="5.996591" y="-0.953125">×</tspan><tspan style="font: 8.3px 'Arial'" x="12.224109" y="-0.953125">1</tspan><tspan style="font: 8.3px 'Arial'" x="16.838428" y="-0.953125"> </tspan><tspan style="font: 8.3px 'Arial'" x="19.143558" y="-0.953125">c</tspan><tspan style="font: 8.3px 'Arial'" x="23.291995" y="-0.953125">o</tspan><tspan style="font: 8.3px 'Arial'" x="27.906314" y="-0.953125">n</tspan><tspan style="font: 8.3px 'Arial'" x="32.520633" y="-0.953125">v</tspan><tspan style="font: 8.3px 'Arial'" x="36.66907" y="-0.953125">:</tspan><tspan style="font: 8.3px 'Arial'" x="38.9742" y="-0.953125"> </tspan><tspan style="font: 8.3px 'Arial'" x="48.653333" y="-0.953125">→</tspan><tspan style="font: italic 8.3px 'Arial'" x="41.27933" y="-0.953125">C</tspan><tspan style="font: italic 8.3px 'Arial'" x="58.33248" y="-0.953125">C</tspan></text>
    </g>
   </g>
   </g><g id="spatial-gelu"><g id="spatial-gelu-box">
    <path d="M 27.4 142  L 100.6 142  Q 103 142 103 144.4  L 103 159.6  Q 103 162 100.6 162  L 27.4 162  Q 25 162 25 159.6  L 25 144.4  Q 25 142 27.4 142  z " clip-path="url(#pdbb215e605)" style="fill: #fff0d9; stroke: #a8620c; stroke-width: 0.75; stroke-linejoin: miter" />
   </g>
   <g id="spatial-gelu-text">
    <text style="fill: #242b32; font: 8.3px 'Arial'; text-anchor: middle" x="64" y="154.14568" transform="rotate(-0 64 154.14568)">GELU</text>
   </g>
   </g><g id="rfft"><g id="rfft-box">
    <path d="M 126.4 52  L 233.6 52  Q 236 52 236 54.4  L 236 77.6  Q 236 80 233.6 80  L 126.4 80  Q 124 80 124 77.6  L 124 54.4  Q 124 52 126.4 52  z " clip-path="url(#pdbb215e605)" style="fill: #ffffff; stroke: #a8620c; stroke-width: 0.75; stroke-linejoin: miter" />
   </g>
   <g id="rfft-text">
    <text style="fill: #242b32; font: 8.1px 'Arial'" transform="translate(155.925914 63.4809)">rFFT2 (ortho)</text>
    
    <g style="fill: #242b32" transform="translate(137.5965 71.985647)">
     <text>
      <tspan style="font: italic 8.1px 'Arial'" x="0" y="-0.109375">Q</tspan><tspan style="font: italic 8.1px 'Arial'" x="10.792984" y="-0.109375">H</tspan><tspan style="font: italic 8.1px 'Arial'" x="24.061517" y="-0.109375">W</tspan><tspan style="font: italic 8.1px 'Arial'" x="41.101591" y="-0.109375">C</tspan><tspan style="font: 8.1px 'Arial'" x="6.295578" y="-0.109375">:</tspan><tspan style="font: 8.1px 'Arial'" x="8.544281" y="-0.109375"> </tspan><tspan style="font: 8.1px 'Arial'" x="17.986462" y="-0.109375">×</tspan><tspan style="font: 8.1px 'Arial'" x="35.026536" y="-0.109375">×</tspan><tspan style="font: 8.1px 'Arial'" x="46.946638" y="-0.109375"> </tspan><tspan style="font: 8.1px 'Arial'" x="49.195341" y="-0.109375">(</tspan><tspan style="font: 8.1px 'Arial'" x="51.890623" y="-0.109375">c</tspan><tspan style="font: 8.1px 'Arial'" x="55.937498" y="-0.109375">o</tspan><tspan style="font: 8.1px 'Arial'" x="60.438856" y="-0.109375">m</tspan><tspan style="font: 8.1px 'Arial'" x="67.181013" y="-0.109375">p</tspan><tspan style="font: 8.1px 'Arial'" x="71.682371" y="-0.109375">l</tspan><tspan style="font: 8.1px 'Arial'" x="73.480543" y="-0.109375">e</tspan><tspan style="font: 8.1px 'Arial'" x="77.981901" y="-0.109375">x</tspan><tspan style="font: 8.1px 'Arial'" x="82.028776" y="-0.109375">)</tspan><tspan style="font: italic 5.67px 'Arial'" x="31.700784" y="2.3099937500000003">f</tspan>
     </text>
    </g>
   </g>
   </g><g id="real-imag-concat"><g id="real-imag-concat-box">
    <path d="M 126.4 92  L 233.6 92  Q 236 92 236 94.4  L 236 117.6  Q 236 120 233.6 120  L 126.4 120  Q 124 120 124 117.6  L 124 94.4  Q 124 92 126.4 92  z " clip-path="url(#pdbb215e605)" style="fill: #ffffff; stroke: #a8620c; stroke-width: 0.75; stroke-linejoin: miter" />
   </g>
   <g id="real-imag-concat-text">
    <text style="fill: #242b32; font: 8.3px 'Arial'" transform="translate(152.325336 103.416755)">Concat Re / Im</text>
    
    <g style="fill: #242b32" transform="translate(148.294 112.03423)">
     <text>
      <tspan style="font: italic 8.3px 'Arial'" x="0" y="-0.953125">H</tspan><tspan style="font: italic 8.3px 'Arial'" x="13.60152" y="-0.953125">W</tspan><tspan style="font: italic 8.3px 'Arial'" x="35.683382" y="-0.953125">C</tspan><tspan style="font: 8.3px 'Arial'" x="7.374002" y="-0.953125">×</tspan><tspan style="font: 8.3px 'Arial'" x="24.841546" y="-0.953125">×</tspan><tspan style="font: 8.3px 'Arial'" x="31.069064" y="-0.953125">2</tspan><tspan style="font: 8.3px 'Arial'" x="41.675112" y="-0.953125"> </tspan><tspan style="font: 8.3px 'Arial'" x="43.980242" y="-0.953125">(</tspan><tspan style="font: 8.3px 'Arial'" x="46.743166" y="-0.953125">r</tspan><tspan style="font: 8.3px 'Arial'" x="49.506091" y="-0.953125">e</tspan><tspan style="font: 8.3px 'Arial'" x="54.120409" y="-0.953125">a</tspan><tspan style="font: 8.3px 'Arial'" x="58.734728" y="-0.953125">l</tspan><tspan style="font: 8.3px 'Arial'" x="60.57802" y="-0.953125">)</tspan><tspan style="font: italic 5.81px 'Arial'" x="21.432498" y="1.5259812499999992">f</tspan>
     </text>
    </g>
   </g>
   </g><g id="frequency-mixing"><g id="frequency-mixing-box">
    <path d="M 126.4 132  L 233.6 132  Q 236 132 236 134.4  L 236 172.6  Q 236 175 233.6 175  L 126.4 175  Q 124 175 124 172.6  L 124 134.4  Q 124 132 126.4 132  z " clip-path="url(#pdbb215e605)" style="fill: #fff0d9; stroke: #a8620c; stroke-width: 0.75; stroke-linejoin: miter" />
   </g>
   <g id="frequency-mixing-text">
    
    <g style="fill: #242b32" transform="translate(142.746 147.087584)">
     <text>
      <tspan style="font: 8.4px 'Arial'" x="0" y="-0.890625">1</tspan><tspan style="font: 8.4px 'Arial'" x="6.064349" y="-0.890625">×</tspan><tspan style="font: 8.4px 'Arial'" x="12.362234" y="-0.890625">1</tspan><tspan style="font: 8.4px 'Arial'" x="17.028693" y="-0.890625"> </tspan><tspan style="font: 8.4px 'Arial'" x="19.359869" y="-0.890625">c</tspan><tspan style="font: 8.4px 'Arial'" x="23.555182" y="-0.890625">o</tspan><tspan style="font: 8.4px 'Arial'" x="28.22164" y="-0.890625">n</tspan><tspan style="font: 8.4px 'Arial'" x="32.888098" y="-0.890625">v</tspan><tspan style="font: 8.4px 'Arial'" x="37.083411" y="-0.890625">:</tspan><tspan style="font: 8.4px 'Arial'" x="39.414587" y="-0.890625"> </tspan><tspan style="font: 8.4px 'Arial'" x="41.745764" y="-0.890625">2</tspan><tspan style="font: 8.4px 'Arial'" x="53.869547" y="-0.890625">→</tspan><tspan style="font: 8.4px 'Arial'" x="63.658063" y="-0.890625">2</tspan><tspan style="font: italic 8.4px 'Arial'" x="46.412222" y="-0.890625">C</tspan><tspan style="font: italic 8.4px 'Arial'" x="68.324521" y="-0.890625">C</tspan></text>
    </g>
    <text style="fill: #242b32; font: 8.4px 'Arial'" transform="translate(168.562875 155.671531)">GELU</text>
    
    <g style="fill: #242b32" transform="translate(142.746 164.255478)">
     <text>
      <tspan style="font: 8.4px 'Arial'" x="0" y="-0.890625">1</tspan><tspan style="font: 8.4px 'Arial'" x="6.064349" y="-0.890625">×</tspan><tspan style="font: 8.4px 'Arial'" x="12.362234" y="-0.890625">1</tspan><tspan style="font: 8.4px 'Arial'" x="17.028693" y="-0.890625"> </tspan><tspan style="font: 8.4px 'Arial'" x="19.359869" y="-0.890625">c</tspan><tspan style="font: 8.4px 'Arial'" x="23.555182" y="-0.890625">o</tspan><tspan style="font: 8.4px 'Arial'" x="28.22164" y="-0.890625">n</tspan><tspan style="font: 8.4px 'Arial'" x="32.888098" y="-0.890625">v</tspan><tspan style="font: 8.4px 'Arial'" x="37.083411" y="-0.890625">:</tspan><tspan style="font: 8.4px 'Arial'" x="39.414587" y="-0.890625"> </tspan><tspan style="font: 8.4px 'Arial'" x="41.745764" y="-0.890625">2</tspan><tspan style="font: 8.4px 'Arial'" x="53.869547" y="-0.890625">→</tspan><tspan style="font: 8.4px 'Arial'" x="63.658063" y="-0.890625">2</tspan><tspan style="font: italic 8.4px 'Arial'" x="46.412222" y="-0.890625">C</tspan><tspan style="font: italic 8.4px 'Arial'" x="68.324521" y="-0.890625">C</tspan></text>
    </g>
   </g>
   </g><g id="complex-reconstruction"><g id="complex-reconstruction-box">
    <path d="M 126.4 187  L 233.6 187  Q 236 187 236 189.4  L 236 205.6  Q 236 208 233.6 208  L 126.4 208  Q 124 208 124 205.6  L 124 189.4  Q 124 187 126.4 187  z " clip-path="url(#pdbb215e605)" style="fill: #ffffff; stroke: #a8620c; stroke-width: 0.75; stroke-linejoin: miter" />
   </g>
   <g id="complex-reconstruction-text">
    
    <g style="fill: #242b32" transform="translate(147.534 199.726)">
     <text>
      <tspan style="font: 8.4px 'Arial'" x="0" y="-0.890625">S</tspan><tspan style="font: 8.4px 'Arial'" x="5.596481" y="-0.890625">p</tspan><tspan style="font: 8.4px 'Arial'" x="10.262939" y="-0.890625">l</tspan><tspan style="font: 8.4px 'Arial'" x="12.12706" y="-0.890625">i</tspan><tspan style="font: 8.4px 'Arial'" x="13.99118" y="-0.890625">t</tspan><tspan style="font: 8.4px 'Arial'" x="16.322357" y="-0.890625"> </tspan><tspan style="font: 8.4px 'Arial'" x="20.051425" y="-0.890625">→</tspan><tspan style="font: 8.4px 'Arial'" x="29.839941" y="-0.890625"> </tspan><tspan style="font: 8.4px 'Arial'" x="32.171118" y="-0.890625">R</tspan><tspan style="font: 8.4px 'Arial'" x="38.230551" y="-0.890625">e</tspan><tspan style="font: 8.4px 'Arial'" x="42.897009" y="-0.890625"> </tspan><tspan style="font: 8.4px 'Arial'" x="45.228186" y="-0.890625">+</tspan><tspan style="font: 8.4px 'Arial'" x="53.157233" y="-0.890625"> </tspan><tspan style="font: 8.4px 'Arial'" x="55.48841" y="-0.890625">I</tspan><tspan style="font: 8.4px 'Arial'" x="57.819587" y="-0.890625">m</tspan><tspan style="font: italic 8.4px 'Arial'" x="51.293113" y="-0.890625">i</tspan>
     </text>
    </g>
   </g>
   </g><g id="irfft"><g id="irfft-box">
    <path d="M 126.4 220  L 233.6 220  Q 236 220 236 222.4  L 236 245.6  Q 236 248 233.6 248  L 126.4 248  Q 124 248 124 245.6  L 124 222.4  Q 124 220 126.4 220  z " clip-path="url(#pdbb215e605)" style="fill: #ffffff; stroke: #a8620c; stroke-width: 0.75; stroke-linejoin: miter" />
   </g>
   <g id="irfft-text">
    <text style="fill: #242b32; font: 8.4px 'Arial'" transform="translate(154.101094 231.7236)">irFFT2 (ortho)</text>
    
    <g style="fill: #242b32" transform="translate(145.686 240.543338)">
     <text>
      <tspan style="font: 8.4px 'Arial'" x="0" y="-0.890625">o</tspan><tspan style="font: 8.4px 'Arial'" x="4.666458" y="-0.890625">u</tspan><tspan style="font: 8.4px 'Arial'" x="9.332916" y="-0.890625">t</tspan><tspan style="font: 8.4px 'Arial'" x="11.664093" y="-0.890625">p</tspan><tspan style="font: 8.4px 'Arial'" x="16.330551" y="-0.890625">u</tspan><tspan style="font: 8.4px 'Arial'" x="20.997009" y="-0.890625">t</tspan><tspan style="font: 8.4px 'Arial'" x="23.328186" y="-0.890625"> </tspan><tspan style="font: 8.4px 'Arial'" x="25.659363" y="-0.890625">s</tspan><tspan style="font: 8.4px 'Arial'" x="29.854675" y="-0.890625">i</tspan><tspan style="font: 8.4px 'Arial'" x="31.718796" y="-0.890625">z</tspan><tspan style="font: 8.4px 'Arial'" x="35.914108" y="-0.890625">e</tspan><tspan style="font: 8.4px 'Arial'" x="40.580566" y="-0.890625">:</tspan><tspan style="font: 8.4px 'Arial'" x="42.911743" y="-0.890625"> </tspan><tspan style="font: 8.4px 'Arial'" x="45.24292" y="-0.890625">(</tspan><tspan style="font: 8.4px 'Arial'" x="54.096497" y="-0.890625">,</tspan><tspan style="font: 8.4px 'Arial'" x="65.745029" y="-0.890625">)</tspan><tspan style="font: italic 8.4px 'Arial'" x="48.037064" y="-0.890625">H</tspan><tspan style="font: italic 8.4px 'Arial'" x="57.825565" y="-0.890625">W</tspan></text>
    </g>
   </g>
   </g><g id="spatial-spectral-concat"><g id="spatial-spectral-concat-box">
    <path d="M 71.4 268  L 180.6 268  Q 183 268 183 270.4  L 183 289.6  Q 183 292 180.6 292  L 71.4 292  Q 69 292 69 289.6  L 69 270.4  Q 69 268 71.4 268  z " clip-path="url(#pdbb215e605)" style="fill: #ffffff; stroke: #a8620c; stroke-width: 0.75; stroke-linejoin: miter" />
   </g>
   <g id="spatial-spectral-concat-text">
    
    <g style="fill: #242b32" transform="translate(99.772 277.502121)">
     <text>
      <tspan style="font: 8.3px 'Arial'" x="0" y="-0.953125">C</tspan><tspan style="font: 8.3px 'Arial'" x="5.99173" y="-0.953125">o</tspan><tspan style="font: 8.3px 'Arial'" x="10.606049" y="-0.953125">n</tspan><tspan style="font: 8.3px 'Arial'" x="15.220367" y="-0.953125">c</tspan><tspan style="font: 8.3px 'Arial'" x="19.368805" y="-0.953125">a</tspan><tspan style="font: 8.3px 'Arial'" x="23.983124" y="-0.953125">t</tspan><tspan style="font: 8.3px 'Arial'" x="26.288254" y="-0.953125"> </tspan><tspan style="font: 8.3px 'Arial'" x="28.593384" y="-0.953125">[</tspan><tspan style="font: 8.3px 'Arial'" x="39.283659" y="-0.953125">,</tspan><tspan style="font: 8.3px 'Arial'" x="50.065891" y="-0.953125">]</tspan><tspan style="font: italic 8.3px 'Arial'" x="30.898514" y="-0.953125">F</tspan><tspan style="font: italic 8.3px 'Arial'" x="42.971061" y="-0.953125">F</tspan><tspan style="font: italic 5.81px 'Arial'" x="35.966568" y="1.5259812499999992">s</tspan><tspan style="font: italic 5.81px 'Arial'" x="48.039115" y="1.5259812499999992">f</tspan></text>
    </g>
    
    <g style="fill: #242b32" transform="translate(106.163 286.907254)">
     <text>
      <tspan style="font: italic 8.3px 'Arial'" x="0" y="-0.953125">H</tspan><tspan style="font: italic 8.3px 'Arial'" x="13.60152" y="-0.953125">W</tspan><tspan style="font: italic 8.3px 'Arial'" x="33.656607" y="-0.953125">C</tspan><tspan style="font: 8.3px 'Arial'" x="7.374002" y="-0.953125">×</tspan><tspan style="font: 8.3px 'Arial'" x="22.814771" y="-0.953125">×</tspan><tspan style="font: 8.3px 'Arial'" x="29.042288" y="-0.953125">2</tspan></text>
    </g>
   </g>
   </g><g id="output-projection"><g id="output-projection-box">
    <path d="M 71.4 304  L 180.6 304  Q 183 304 183 306.4  L 183 344.6  Q 183 347 180.6 347  L 71.4 347  Q 69 347 69 344.6  L 69 306.4  Q 69 304 71.4 304  z " clip-path="url(#pdbb215e605)" style="fill: #fff0d9; stroke: #a8620c; stroke-width: 0.75; stroke-linejoin: miter" />
   </g>
   <g id="output-projection-text">
    
    <g style="fill: #242b32" transform="translate(91.098 319.087584)">
     <text>
      <tspan style="font: 8.4px 'Arial'" x="0" y="-0.890625">1</tspan><tspan style="font: 8.4px 'Arial'" x="6.064349" y="-0.890625">×</tspan><tspan style="font: 8.4px 'Arial'" x="12.362234" y="-0.890625">1</tspan><tspan style="font: 8.4px 'Arial'" x="17.028693" y="-0.890625"> </tspan><tspan style="font: 8.4px 'Arial'" x="19.359869" y="-0.890625">c</tspan><tspan style="font: 8.4px 'Arial'" x="23.555182" y="-0.890625">o</tspan><tspan style="font: 8.4px 'Arial'" x="28.22164" y="-0.890625">n</tspan><tspan style="font: 8.4px 'Arial'" x="32.888098" y="-0.890625">v</tspan><tspan style="font: 8.4px 'Arial'" x="37.083411" y="-0.890625">:</tspan><tspan style="font: 8.4px 'Arial'" x="39.414587" y="-0.890625"> </tspan><tspan style="font: 8.4px 'Arial'" x="41.745764" y="-0.890625">2</tspan><tspan style="font: 8.4px 'Arial'" x="53.869547" y="-0.890625">→</tspan><tspan style="font: italic 8.4px 'Arial'" x="46.412222" y="-0.890625">C</tspan><tspan style="font: italic 8.4px 'Arial'" x="63.658063" y="-0.890625">C</tspan></text>
    </g>
    <text style="fill: #242b32; font: 8.4px 'Arial'" transform="translate(114.562875 327.671531)">GELU</text>
    
    <g style="fill: #242b32" transform="translate(93.408 336.255478)">
     <text>
      <tspan style="font: 8.4px 'Arial'" x="0" y="-0.890625">3</tspan><tspan style="font: 8.4px 'Arial'" x="6.064349" y="-0.890625">×</tspan><tspan style="font: 8.4px 'Arial'" x="12.362234" y="-0.890625">3</tspan><tspan style="font: 8.4px 'Arial'" x="17.028693" y="-0.890625"> </tspan><tspan style="font: 8.4px 'Arial'" x="19.359869" y="-0.890625">c</tspan><tspan style="font: 8.4px 'Arial'" x="23.555182" y="-0.890625">o</tspan><tspan style="font: 8.4px 'Arial'" x="28.22164" y="-0.890625">n</tspan><tspan style="font: 8.4px 'Arial'" x="32.888098" y="-0.890625">v</tspan><tspan style="font: 8.4px 'Arial'" x="37.083411" y="-0.890625">:</tspan><tspan style="font: 8.4px 'Arial'" x="39.414587" y="-0.890625"> </tspan><tspan style="font: 8.4px 'Arial'" x="49.203088" y="-0.890625">→</tspan><tspan style="font: italic 8.4px 'Arial'" x="41.745764" y="-0.890625">C</tspan><tspan style="font: italic 8.4px 'Arial'" x="58.991605" y="-0.890625">C</tspan></text>
    </g>
   </g>
   </g></g>
 </g>
 <defs>
  <clipPath id="pdbb215e605">
   <rect x="0" y="0" width="251.058531" height="412" />
  </clipPath>
 </defs>
</svg>